{"title":"Mr. Robot Season 1 All Episode HDTV 720p","uid":12342721,"size":2345561204,"categoryP":"video","categoryS":"tv_shows","magnet":"?xt=urn:btih:e4fd7d5126a82c299339fe9d85253272c1904e6b&amp;dn=Mr.+Robot+Season+1+All+Episode+HDTV+720p&amp;tr=udp%3A%2F%2Ftracker.openbittorrent.com%3A80&amp;tr=udp%3A%2F%2Fopen.demonii.com%3A1337&amp;tr=udp%3A%2F%2Ftracker.coppersurfer.tk%3A6969&amp;tr=udp%3A%2F%2Fexodus.desync.com%3A6969","seeders":0,"leechers":0,"uploader":"zoardar","files":19,"time":1441317349,"description":"[b]General[/b]\nComplete name                            : Mr. Robot HDTV.mp4\nFormat                                   : MPEG-4\nFormat profile                           : Base Media\nCodec ID                                 : isom\nOverall bit rate mode                    : Variable\nOverall bit rate                         : 680 Kbps\nEncoded date                             : UTC 2015-05-28 00:54:45\nTagged date                              : UTC 2015-05-28 00:54:45\n\n[b]Video[/b]\nID                                       : 1\nFormat                                   : AVC\nFormat/Info                              : Advanced Video Codec\nFormat profile                           : &lt;a class=&quot;__cf_email__&quot; href=&quot;/cdn-cgi/l/email-protection&quot; data-cfemail=&quot;763e1f111e363a455847&quot;&gt;[email&amp;#160;protected]&lt;/a&gt;&lt;script data-cfhash='f9e31' type=&quot;text/javascript&quot;&gt;\n/* &lt;![CDATA[ */!function(){try{var t=&quot;currentScript&quot;in document?document.currentScript:function(){for(var t=document.getElementsByTagName(&quot;script&quot;),e=t.length;e--;)if(t[e].getAttribute(&quot;data-cfhash&quot;))return t[e]}();if(t&amp;&amp;t.previousSibling){var e,r,n,i,c=t.previousSibling,a=c.getAttribute(&quot;data-cfemail&quot;);if(a){for(e=&quot;&quot;,r=parseInt(a.substr(0,2),16),n=2;a.length-n;n+=2)i=parseInt(a.substr(n,2),16)^r,e+=String.fromCharCode(i);e=document.createTextNode(e),c.parentNode.replaceChild(e,c)}t.parentNode.removeChild(t);}}catch(u){}}()/* ]]&gt; */&lt;/script&gt;\nFormat settings, CABAC                   : Yes\nFormat settings, ReFrames                : 5 frames\nCodec ID                                 : avc1\nCodec ID/Info                            : Advanced Video Coding\nDuration                                 : 1h 4mn\nBit rate                                 : 553 Kbps\nMaximum bit rate                         : 6 951 Kbps\nWidth                                    : 720 pixels\nHeight                                   : 404 pixels\nDisplay aspect ratio                     : 16:9\nFrame rate mode                          : Constant\nFrame rate                               : 23.976 fps\nColor space                              : YUV\nChroma subsampling                       : 4:2:0\nBit depth                                : 8 bits\nScan type                                : Progressive\nBits/(Pixel*Frame)                       : 0.079\nStream size                              : 257 MiB (81%)\nWriting library                          : x264 core 146 r2538 121396c\nEncoded date                             : UTC 2015-05-23 22:05:39\nTagged date                              : UTC 2015-05-28 00:54:49\nColor range                              : Limited\nMatrix coefficients                      : BT.709\n\n[b]Audio[/b]\nID                                       : 2\nFormat                                   : AAC\nFormat/Info                              : Advanced Audio Codec\nFormat profile                           : LC\nCodec ID                                 : 40\nDuration                                 : 1h 4mn\nBit rate mode                            : Variable\nBit rate                                 : 123 Kbps\nMaximum bit rate                         : 151 Kbps\nChannel(s)                               : 2 channels\nChannel positions                        : Front: L R\nSampling rate                            : 48.0 KHz\nCompression mode                         : Lossy\nStream size                              : 57.0 MiB (18%)\nEncoded date                             : UTC 2015-05-28 00:54:48\nTagged date                              : UTC 2015-05-28 00:54:49\n\n\n\n[b][color=firebrick]Screeshots[/color][/b]","torrent":{"xt":"urn:btih:e4fd7d5126a82c299339fe9d85253272c1904e6b","amp;dn":"Mr.+Robot+Season+1+All+Episode+HDTV+720p","amp;tr":["udp%3A%2F%2Ftracker.openbittorrent.com%3A80","udp%3A%2F%2Fopen.demonii.com%3A1337","udp%3A%2F%2Ftracker.coppersurfer.tk%3A6969","udp%3A%2F%2Fexodus.desync.com%3A6969"],"infoHash":"e4fd7d5126a82c299339fe9d85253272c1904e6b","infoHashBuffer":{"type":"Buffer","data":[228,253,125,81,38,168,44,41,147,57,254,157,133,37,50,114,193,144,78,107]},"announce":[],"urlList":[]}}